<svg xmlns="http://www.w3.org/2000/svg" width="20.227" height="17.16" viewBox="0 0 20.227 17.16">
  <g id="粉丝" transform="translate(0 0)">
    <path id="路径_1734" data-name="路径 1734" d="M228.239,451.83a.55.55,0,1,0,.777.009A.55.55,0,0,0,228.239,451.83Zm1.864,1.254a.441.441,0,0,0-.621-.007l-.025.025a.441.441,0,0,0-.007.622l2.9,2.965a.441.441,0,0,0,.621.007l.025-.025a.441.441,0,0,0,.007-.621Z" transform="translate(-224.376 -444.462)" fill="#fff"/>
    <path id="路径_1735" data-name="路径 1735" d="M83.911,141.841a3.071,3.071,0,0,0-2.233-.967,3.03,3.03,0,0,0-1.281.282,5.378,5.378,0,0,0-.233-6.9,5.236,5.236,0,0,0-7.15-.47,5.239,5.239,0,0,0-7.15.468,5.4,5.4,0,0,0,.251,7.456L72.3,147.9a1,1,0,0,0,.714.3h0a1,1,0,0,0,.712-.3l1.993-1.993a3.267,3.267,0,0,0,.251.28l3.349,3.356a.758.758,0,0,0,.536.219h.018a.762.762,0,0,0,.533-.219l3.358-3.354A3.14,3.14,0,0,0,83.911,141.841Zm-10.9,5.22-6.127-6.124a4.284,4.284,0,0,1-.228-5.923A4.165,4.165,0,0,1,69.7,133.7a4.123,4.123,0,0,1,2.712,1.015.92.92,0,0,0,1.216,0,4.144,4.144,0,0,1,5.747.282,4.291,4.291,0,0,1-.228,5.923l-.1.1a3.037,3.037,0,0,0-.97-.158,3.075,3.075,0,0,0-2.24.974,3.132,3.132,0,0,0-.653,3.053ZM83.1,145.509l-3.218,3.218-3.218-3.218a2.181,2.181,0,0,1-.129-3.01,2.1,2.1,0,0,1,2.918-.149.642.642,0,0,0,.843,0,2.1,2.1,0,0,1,2.924.149A2.178,2.178,0,0,1,83.1,145.509Z" transform="translate(-64.489 -132.6)" fill="#fff"/>
    <path id="路径_1736" data-name="路径 1736" d="M577.663,541.487a.642.642,0,0,1-.843,0,2.1,2.1,0,0,0-2.918.149,2.181,2.181,0,0,0,.129,3.01l3.218,3.218,3.218-3.218a2.18,2.18,0,0,0,.12-3.01A2.1,2.1,0,0,0,577.663,541.487Z" transform="translate(-561.861 -531.738)" fill="#58b4fe"/>
  </g>
</svg>
