<svg xmlns="http://www.w3.org/2000/svg" width="19.212" height="15.569" viewBox="0 0 19.212 15.569">
  <g id="钱包" transform="translate(0 0)">
    <path id="路径_1728" data-name="路径 1728" d="M172.971,446.142a.571.571,0,1,0-.571-.571A.571.571,0,0,0,172.971,446.142Z" transform="translate(-170.077 -438.7)" fill="#fff"/>
    <path id="路径_1729" data-name="路径 1729" d="M82.154,156.626h-.185V154.1a2.6,2.6,0,0,0-2.6-2.6H66.8a2.6,2.6,0,0,0-2.6,2.6v10.379a2.6,2.6,0,0,0,2.6,2.6H79.372a2.6,2.6,0,0,0,2.6-2.6v-2.533h.185a1.264,1.264,0,0,0,1.26-1.262v-2.791A1.261,1.261,0,0,0,82.154,156.626Zm-1.206,7.848a1.576,1.576,0,0,1-1.573,1.573H66.8a1.576,1.576,0,0,1-1.573-1.573V154.1a1.576,1.576,0,0,1,1.573-1.573H79.372a1.576,1.576,0,0,1,1.573,1.573v2.531H73.892a1.264,1.264,0,0,0-1.26,1.262v2.793a1.267,1.267,0,0,0,1.26,1.262h7.056Zm1.6-3.759a.393.393,0,0,1-.393.393H73.892a.393.393,0,0,1-.393-.393V157.92a.393.393,0,0,1,.393-.393h8.262a.393.393,0,0,1,.393.393Z" transform="translate(-64.2 -151.5)" fill="#fff"/>
    <path id="路径_1730" data-name="路径 1730" d="M506.055,432.3h-8.262a.393.393,0,0,0-.393.393v2.793a.393.393,0,0,0,.393.393h8.262a.393.393,0,0,0,.393-.393v-2.793A.393.393,0,0,0,506.055,432.3Zm-6.5,2.889a1.1,1.1,0,1,1,1.1-1.1A1.1,1.1,0,0,1,499.555,435.189Z" transform="translate(-488.101 -426.272)" fill="#59b9fe"/>
    <path id="路径_1731" data-name="路径 1731" d="M578.229,495.7a.429.429,0,1,0,.429.429A.431.431,0,0,0,578.229,495.7Z" transform="translate(-566.775 -488.311)" fill="#ffd524"/>
    <path id="路径_1732" data-name="路径 1732" d="M184.565,464.5a1.1,1.1,0,1,0,1.1,1.1A1.1,1.1,0,0,0,184.565,464.5Zm0,1.528a.429.429,0,1,1,.429-.429A.429.429,0,0,1,184.565,466.028Zm-5.877,4.308h-1.309c-.766,0-.955-.187-.955-.955v-3.374h0a.457.457,0,0,0-.914,0h0v3.374a1.636,1.636,0,0,0,1.876,1.876h1.309a.46.46,0,0,0,.459-.459A.454.454,0,0,0,178.688,470.337Z" transform="translate(-173.111 -457.781)" fill="#fff"/>
  </g>
</svg>
