<svg xmlns="http://www.w3.org/2000/svg" width="18.838" height="15.799" viewBox="0 0 18.838 15.799">
  <g id="记录" transform="translate(0 0)">
    <path id="路径_1724" data-name="路径 1724" d="M67.408,270.219A2.412,2.412,0,0,1,65,267.81v-8.5a2.412,2.412,0,0,1,2.408-2.408H79.221a2.412,2.412,0,0,1,2.408,2.408v8.5a2.412,2.412,0,0,1-2.408,2.408Zm0-12.3a1.387,1.387,0,0,0-1.386,1.386v8.5a1.387,1.387,0,0,0,1.386,1.386H79.221a1.389,1.389,0,0,0,1.388-1.386v-8.5a1.388,1.388,0,0,0-1.388-1.386Z" transform="translate(-65 -254.42)" fill="#fff"/>
    <path id="路径_1725" data-name="路径 1725" d="M199.318,427h-6.859a.059.059,0,0,1-.059-.059v-.928a.059.059,0,0,1,.059-.059h6.859a.059.059,0,0,1,.059.059v.928A.057.057,0,0,1,199.318,427Zm0,3.675h-6.859a.059.059,0,0,1-.059-.059v-.928a.059.059,0,0,1,.059-.059h6.859a.059.059,0,0,1,.059.059v.928A.059.059,0,0,1,199.318,430.679Zm2.181-2.915a.379.379,0,0,1-.271-.114l-1.022-1.026a.384.384,0,0,1,.543-.543l.753.755,1.519-1.525a.373.373,0,0,1,.271-.111.383.383,0,0,1,.271.654l-1.79,1.8a.391.391,0,0,1-.273.114Zm0,3.675a.379.379,0,0,1-.271-.114l-1.022-1.026a.384.384,0,0,1,.543-.543l.753.755,1.519-1.525a.373.373,0,0,1,.271-.111.383.383,0,0,1,.271.654l-1.79,1.8A.391.391,0,0,1,201.5,431.439Z" transform="translate(-189.72 -419.18)" fill="#fff"/>
    <path id="路径_1726" data-name="路径 1726" d="M184.377,143.888a2.366,2.366,0,0,0-2.364-2.364H170.2c-.057,0-.114,0-.17.008l-.023,0-.006-.023v-.1A2.412,2.412,0,0,1,172.408,139h11.813a2.412,2.412,0,0,1,2.408,2.408v8.5a2.418,2.418,0,0,1-2.228,2.4l-.023,0v-8.424Z" transform="translate(-167.791 -139)" fill="#fff"/>
    <path id="路径_1727" data-name="路径 1727" d="M230.722,186.5H218.909a1.411,1.411,0,0,0-1.409,1.409V188h11.011a2.39,2.39,0,0,1,2.387,2.387v7.41a1.406,1.406,0,0,0,1.231-1.39v-8.5A1.409,1.409,0,0,0,230.722,186.5Z" transform="translate(-214.292 -185.501)" fill="#58b4fe"/>
  </g>
</svg>
