<svg xmlns="http://www.w3.org/2000/svg" width="62.693" height="16" viewBox="0 0 62.693 16">
  <g id="组_692" data-name="组 692" transform="translate(-209 -57.572)">
    <g id="组_622" data-name="组 622" transform="translate(259.163 57.186)">
      <path id="路径_1718" data-name="路径 1718" d="M8,0H54.693a8,8,0,0,1,0,16H8A8,8,0,0,1,8,0Z" transform="translate(-50.163 0.386)" fill="#59b9fe"/>
      <g id="船_1_" data-name="船 (1)" transform="translate(-42.05 3.891)">
        <path id="路径_1544" data-name="路径 1544" d="M125.521,370.932a.267.267,0,0,1-.248-.168l-1.5-3.793a.27.27,0,0,1,.005-.21.266.266,0,0,1,.155-.14l3.957-1.352a.265.265,0,0,1,.24.035.269.269,0,0,1,.112.216v4.715a.266.266,0,1,1-.532,0v-4.341l-3.341,1.142,1.4,3.534a.265.265,0,0,1-.149.345A.262.262,0,0,1,125.521,370.932Z" transform="translate(-123.223 -362.622)" fill="#fff"/>
        <path id="路径_1545" data-name="路径 1545" d="M498.375,371.148a.267.267,0,0,1-.247-.364l1.445-3.651-3.341-1.142v4.288a.266.266,0,0,1-.532,0v-4.661a.266.266,0,0,1,.352-.251l3.957,1.352a.266.266,0,0,1,.161.35l-1.548,3.909A.266.266,0,0,1,498.375,371.148Z" transform="translate(-491.211 -362.72)" fill="#fff"/>
        <path id="路径_1546" data-name="路径 1546" d="M81.27,240.334a5.829,5.829,0,0,1-1.652-.286A5.63,5.63,0,0,0,78.4,239.8a3.26,3.26,0,0,0-1.064.164,5.064,5.064,0,0,1-1.459.225,2.964,2.964,0,0,1-1.967-.8.266.266,0,0,1,.381-.372,2.22,2.22,0,0,0,.439.32,2.367,2.367,0,0,0,1.153.321,4.535,4.535,0,0,0,1.315-.206,3.734,3.734,0,0,1,1.232-.182,6.16,6.16,0,0,1,1.331.265,5.314,5.314,0,0,0,1.509.266,1.907,1.907,0,0,0,1.067-.313,1.693,1.693,0,0,0,.215-.166.266.266,0,0,1,.355.4A2.411,2.411,0,0,1,81.27,240.334Zm.167-4.43a.266.266,0,0,1-.266-.266v-2.006H76.007v.433a.266.266,0,0,1-.532,0v-.7a.266.266,0,0,1,.266-.266h5.7a.266.266,0,0,1,.266.266v2.272A.266.266,0,0,1,81.438,235.9Zm-5.7,0a.266.266,0,0,1-.266-.266v-.46a.266.266,0,1,1,.532,0v.46A.266.266,0,0,1,75.741,235.9Z" transform="translate(-73.835 -231.874)" fill="#fff"/>
        <path id="路径_1547" data-name="路径 1547" d="M354.54,119.658a.266.266,0,0,1-.266-.266v-.96h-2.542v.96a.266.266,0,1,1-.532,0v-1.226a.266.266,0,0,1,.266-.266h3.074a.266.266,0,0,1,.266.266v1.226A.265.265,0,0,1,354.54,119.658Z" transform="translate(-348.249 -117.9)" fill="#fff"/>
      </g>
    </g>
    <text id="免费登船" transform="translate(230 68.572)" fill="#fff" font-size="8" font-family="MicrosoftYaHei, Microsoft YaHei"><tspan x="0" y="0">免费登船</tspan></text>
  </g>
</svg>
