<svg xmlns="http://www.w3.org/2000/svg" width="18" height="18" viewBox="0 0 18 18">
  <g id="组_629" data-name="组 629" transform="translate(-279 -388)">
    <g id="组_622" data-name="组 622" transform="translate(-15 -1)">
      <g id="船_1_" data-name="船 (1)" transform="translate(224.165 275.099)">
        <path id="路径_1544" data-name="路径 1544" d="M125.724,371.585a.3.3,0,0,1-.276-.187l-1.673-4.23a.3.3,0,0,1,.006-.234.3.3,0,0,1,.173-.157l4.412-1.508a.3.3,0,0,1,.268.039.3.3,0,0,1,.125.241v5.257a.3.3,0,1,1-.593,0v-4.841l-3.725,1.273,1.559,3.94a.3.3,0,0,1-.166.384A.293.293,0,0,1,125.724,371.585Z" transform="translate(-49.326 -244.419)" fill="#707070"/>
        <path id="路径_1545" data-name="路径 1545" d="M498.683,371.814a.3.3,0,0,1-.275-.406l1.611-4.071-3.725-1.273v4.781a.3.3,0,1,1-.593,0v-5.2a.3.3,0,0,1,.393-.28l4.412,1.508a.3.3,0,0,1,.179.39l-1.726,4.359A.3.3,0,0,1,498.683,371.814Z" transform="translate(-416.86 -244.518)" fill="#707070"/>
        <path id="路径_1546" data-name="路径 1546" d="M82.126,241.166a6.5,6.5,0,0,1-1.843-.319,6.277,6.277,0,0,0-1.357-.275,3.635,3.635,0,0,0-1.186.183,5.647,5.647,0,0,1-1.627.25,3.3,3.3,0,0,1-2.194-.893.3.3,0,0,1,.425-.415,2.476,2.476,0,0,0,.49.357,2.639,2.639,0,0,0,1.286.358,5.056,5.056,0,0,0,1.466-.23,4.164,4.164,0,0,1,1.374-.2,6.868,6.868,0,0,1,1.484.3,5.926,5.926,0,0,0,1.682.3,2.127,2.127,0,0,0,1.19-.349,1.887,1.887,0,0,0,.24-.185.3.3,0,0,1,.4.441A2.688,2.688,0,0,1,82.126,241.166Zm.186-4.939a.3.3,0,0,1-.3-.3v-2.236H76.256v.483a.3.3,0,1,1-.593,0V233.4a.3.3,0,0,1,.3-.3h6.352a.3.3,0,0,1,.3.3v2.533A.3.3,0,0,1,82.312,236.226Zm-6.352,0a.3.3,0,0,1-.3-.3v-.513a.3.3,0,1,1,.593,0v.513A.3.3,0,0,1,75.96,236.226Z" transform="translate(0 -113.833)" fill="#707070"/>
        <path id="路径_1547" data-name="路径 1547" d="M354.924,119.86a.3.3,0,0,1-.3-.3v-1.07h-2.834v1.07a.3.3,0,1,1-.593,0V118.2a.3.3,0,0,1,.3-.3h3.428a.3.3,0,0,1,.3.3v1.367A.3.3,0,0,1,354.924,119.86Z" transform="translate(-274.074)" fill="#707070"/>
      </g>
      <g id="椭圆_28" data-name="椭圆 28" transform="translate(294 389)" fill="none" stroke="#707070" stroke-width="0.5">
        <circle cx="9" cy="9" r="9" stroke="none"/>
        <circle cx="9" cy="9" r="8.75" fill="none"/>
      </g>
    </g>
  </g>
</svg>
