<svg xmlns="http://www.w3.org/2000/svg" width="8.91" height="8.651" viewBox="0 0 8.91 8.651">
  <path id="排序" d="M133.14,180.309l.546-.607a.34.34,0,0,1,.517,0,.439.439,0,0,1,0,.575l-1.174,1.306a.338.338,0,0,1-.4.089.408.408,0,0,1-.225-.376v-7.835a.367.367,0,0,1,.734,0v6.849Zm-7.417-6.437a.419.419,0,0,1,0-.816h5.285a.419.419,0,0,1,0,.816Zm0,3.917a.419.419,0,0,1,0-.816h5.285a.419.419,0,0,1,0,.816Zm0,3.917a.419.419,0,0,1,0-.816h5.285a.419.419,0,0,1,0,.816Z" transform="translate(-125.4 -173.056)" fill="#5a5a68"/>
</svg>
