<svg xmlns="http://www.w3.org/2000/svg" width="5.59" height="5.612" viewBox="0 0 5.59 5.612">
  <g id="统计" transform="translate(0 0)">
    <path id="路径_1719" data-name="路径 1719" d="M786.422,746.676m-.175,0a.175.175,0,1,0,.175-.175A.175.175,0,0,0,786.247,746.676Z" transform="translate(-781.658 -742.143)"/>
    <path id="路径_1720" data-name="路径 1720" d="M840.621,659.957m-.175,0a.175.175,0,1,0,.175-.175A.175.175,0,0,0,840.446,659.957Z" transform="translate(-835.511 -655.977)"/>
    <path id="路径_1721" data-name="路径 1721" d="M874.586,565.29m-.175,0a.175.175,0,1,0,.175-.175A.175.175,0,0,0,874.411,565.29Z" transform="translate(-869.259 -561.914)"/>
    <path id="路径_1722" data-name="路径 1722" d="M71.353,89.444a2.415,2.415,0,0,1-1.379.429,2.444,2.444,0,0,1-.512-4.834.163.163,0,0,0-.069-.318,2.768,2.768,0,0,0,.581,5.475,2.736,2.736,0,0,0,1.564-.484.162.162,0,0,0-.184-.268Z" transform="translate(-67.207 -84.583)"/>
    <path id="路径_1723" data-name="路径 1723" d="M484.339,63.593a.163.163,0,0,0-.161.161v2.606a.163.163,0,0,0,.161.161h2.606a.163.163,0,0,0,.161-.161A2.773,2.773,0,0,0,484.339,63.593ZM484.5,66.2V63.921a2.447,2.447,0,0,1,2.278,2.278Z" transform="translate(-481.517 -63.593)"/>
  </g>
</svg>
