<svg xmlns="http://www.w3.org/2000/svg" width="140.736" height="112.374" viewBox="0 0 140.736 112.374">
  <g id="火车票_" data-name="火车票 " transform="translate(-17.561 -117.88)" opacity="0.3">
    <path id="路径_1679" data-name="路径 1679" d="M232.185,365.249A2.228,2.228,0,1,1,228,366.78l-1.824-5-.255-.7a2.245,2.245,0,0,1,1.008-2.717,1.463,1.463,0,0,1,.319-.153,2.243,2.243,0,0,1,2.871,1.34l2.067,5.7ZM228,353.729a2.234,2.234,0,0,1-1.34,2.858,2.315,2.315,0,0,1-.765.14,2.245,2.245,0,0,1-2.092-1.48l-2.08-5.7a2.215,2.215,0,0,1,1.021-2.7,1.463,1.463,0,0,1,.319-.153,2.238,2.238,0,0,1,2.858,1.327Zm-4.21-11.572a2.243,2.243,0,0,1-1.34,2.871,2.316,2.316,0,0,1-.765.14,2.245,2.245,0,0,1-2.092-1.48l-2.08-5.7a2.215,2.215,0,0,1,1.021-2.7,1.463,1.463,0,0,1,.319-.153,2.227,2.227,0,0,1,2.858,1.327Zm-14.965,10.564,8.459,5.333-2.245-6.162a2.234,2.234,0,0,1,4.2-1.531l4.478,12.312a2.24,2.24,0,0,1-.689,2.513,2.9,2.9,0,0,1-.638.357,2.24,2.24,0,0,1-1.965-.217l-8.522-5.384,2.271,6.239a2.234,2.234,0,0,1-4.2,1.531l-4.491-12.35a2.2,2.2,0,0,1,2.45-2.96c.038,0,.077.013.128.013s.1.026.14.038A2.25,2.25,0,0,1,208.825,352.721Zm-1.186,15.82a2.234,2.234,0,1,1-4.2,1.531l-.115-.306-4.363-11.98a2.234,2.234,0,0,1,4.2-1.531l4.478,12.286Zm-6.558,4.708a2.441,2.441,0,0,1-.753.459,2.22,2.22,0,0,1-2.4-.587l-.893-.97-4.606,1.684.026,1.008a2.217,2.217,0,0,1-2.169,2.284,2.25,2.25,0,0,1-2.105-1.327,2.33,2.33,0,0,1-.191-.855l-.345-13.8a2.219,2.219,0,0,1,1.391-2.131,2.243,2.243,0,0,1,2.475.561l9.7,10.525a1.6,1.6,0,0,1,.255.345A2.2,2.2,0,0,1,201.081,373.248Zm-7.323-4.657-1.505-1.62.064,2.156Zm-7.323,7.323a2.234,2.234,0,0,1-.153,2.552,2.1,2.1,0,0,1-1,.714,2.221,2.221,0,0,1-2.143-.345l-5.091-4.031a14.629,14.629,0,0,1-1.48.663l1.416,3.878a2.234,2.234,0,0,1-4.2,1.531l-4.363-11.967-.128-.344a2.243,2.243,0,0,1,1.34-2.871c.038-.013.077-.013.115-.026a.066.066,0,0,1,.051-.026c2.577-1.136,7.272-2.756,9.645-.97a5.205,5.205,0,0,1,2.067,4.988,5.694,5.694,0,0,1-.919,2.245l4.312,3.432A2.466,2.466,0,0,1,186.435,375.915Zm-8.331-6.966a.716.716,0,0,0-.23-.612,10.509,10.509,0,0,0-3.623.766l.8,2.194C177.147,370.442,178.014,369.523,178.1,368.949Zm-10.9.766a2.246,2.246,0,0,1-1.442,2.488l-2.934,1.059,3.725,10.245a2.232,2.232,0,1,1-4.2,1.518l-3.725-10.232-2.934,1.072a2.234,2.234,0,0,1-2.858-1.34c-.038-.128-.077-.255-.1-.383a2.231,2.231,0,0,1,1.442-2.475L164.248,368a2.238,2.238,0,0,1,2.858,1.327C167.144,369.459,167.183,369.587,167.208,369.714Z" transform="translate(-115.882 -186.162)" fill="#97c5ea"/>
    <path id="路径_1680" data-name="路径 1680" d="M145.982,266.132l4.363,11.967a2.234,2.234,0,0,0,4.2-1.531l-1.416-3.878a14.642,14.642,0,0,0,1.48-.663l5.091,4.032a2.221,2.221,0,0,0,2.143.345,2.1,2.1,0,0,0,1-.714,2.234,2.234,0,0,0,.153-2.552l1.748-.115a2.25,2.25,0,0,0,2.105,1.327,2.217,2.217,0,0,0,2.169-2.284l-.026-1.008,4.606-1.684.893.97a2.22,2.22,0,0,0,2.4.587,2.441,2.441,0,0,0,.753-.459,2.2,2.2,0,0,0,.383-2.807l1.863-.676.115.306a2.234,2.234,0,1,0,4.2-1.531l2.335-.829a2.234,2.234,0,0,0,4.2-1.531l-2.271-6.239,8.522,5.384a2.239,2.239,0,0,0,1.965.217,2.9,2.9,0,0,0,.638-.357,2.24,2.24,0,0,0,.689-2.513l2.462-.893,1.824,5a2.228,2.228,0,1,0,4.185-1.531l-2.067-5.7a2.242,2.242,0,0,0-2.871-1.34,1.466,1.466,0,0,0-.319.153l-1.033-1.633a2.315,2.315,0,0,0,.765-.14,2.233,2.233,0,0,0,1.34-2.858l-2.08-5.716a2.238,2.238,0,0,0-2.858-1.327,1.466,1.466,0,0,0-.319.153l-1.059-1.671a2.313,2.313,0,0,0,.765-.14,2.242,2.242,0,0,0,1.34-2.871l-2.08-5.7a2.227,2.227,0,0,0-2.858-1.327,1.466,1.466,0,0,0-.319.153l-1.123-1.875a2.316,2.316,0,0,0,.766-.14,2.238,2.238,0,0,0,1.327-2.858l-1.569-4.312,22.531-8.191a7.931,7.931,0,0,0-1.021,3.2l-17.542,6.392a2.234,2.234,0,0,0,1.531,4.2l16.879-6.149a8.063,8.063,0,0,0,7.948,4.363l.153.434a8.076,8.076,0,0,0,5.358,14.7l.013.051a8.074,8.074,0,0,0,5.346,14.7l.166.434a8.065,8.065,0,0,0-3.445,7.527l-16.138,5.869a2.248,2.248,0,0,0-1.34,2.871,2.222,2.222,0,0,0,2.858,1.327l16.292-5.932a8.012,8.012,0,0,0,3.189,2.424l-98.518,35.863a8.041,8.041,0,0,0-7.833-11.7l-.191-.51a8.063,8.063,0,0,0-5.32-14.621l-.038-.128a8.089,8.089,0,0,0,3.088-8.8l.842-.268c.026.128.064.255.1.383a2.233,2.233,0,0,0,2.858,1.34l2.934-1.072,3.725,10.232a2.232,2.232,0,1,0,4.2-1.518l-3.725-10.245,2.934-1.059a2.246,2.246,0,0,0,1.442-2.488l2.22-.8Z" transform="translate(-92.436 -83.384)" fill="#97c5ea"/>
    <path id="路径_1681" data-name="路径 1681" d="M101.576,324.262l.128.344-2.22.8c-.026-.128-.064-.255-.1-.383a2.238,2.238,0,0,0-2.858-1.327l-10.066,3.662a2.231,2.231,0,0,0-1.442,2.475l-.842.268a3.9,3.9,0,0,0-.166-.549,8.113,8.113,0,0,0-8.254-5.295l-.179-.485a8.066,8.066,0,0,0-1.85-14.149l72.287-26.307,1.569,4.3a2.249,2.249,0,0,0,2.105,1.48l1.123,1.875a2.215,2.215,0,0,0-1.021,2.7l2.08,5.7a2.244,2.244,0,0,0,2.092,1.48l1.059,1.671a2.215,2.215,0,0,0-1.021,2.7l2.08,5.7a2.244,2.244,0,0,0,2.092,1.48l1.033,1.633a2.245,2.245,0,0,0-1.008,2.717l.255.7-2.462.893-4.478-12.312a2.234,2.234,0,0,0-4.2,1.531l2.245,6.162-8.459-5.333a2.257,2.257,0,0,0-.625-.268q-.069-.021-.14-.038c-.051,0-.089-.013-.128-.013a2.2,2.2,0,0,0-2.45,2.96l4.491,12.35-2.335.829-4.478-12.286a2.234,2.234,0,0,0-4.2,1.531l4.363,11.98-1.863.676a1.605,1.605,0,0,0-.255-.345l-9.7-10.525a2.244,2.244,0,0,0-2.475-.561,2.22,2.22,0,0,0-1.391,2.131l.345,13.8a2.326,2.326,0,0,0,.191.855l-1.748.115a2.453,2.453,0,0,0-.523-.574l-4.312-3.432a5.694,5.694,0,0,0,.919-2.245,5.2,5.2,0,0,0-2.067-4.988c-2.373-1.786-7.068-.166-9.645.97a.066.066,0,0,0-.051.026c-.038.013-.077.013-.115.026a2.242,2.242,0,0,0-1.34,2.871Z" transform="translate(-48.158 -141.858)" fill="#97c5ea"/>
    <path id="路径_1682" data-name="路径 1682" d="M31.653,235.262a3.623,3.623,0,0,0-4.58-2.169.751.751,0,0,0-.14.064,2.236,2.236,0,0,1-2.858-1.34l-1.518-4.159A2.229,2.229,0,0,1,23.9,224.8a.773.773,0,0,1,.2-.064A3.613,3.613,0,0,0,21.485,218a2.3,2.3,0,0,1-1.722-.051,2.261,2.261,0,0,1-1.2-1.25l-.868-2.386a2.243,2.243,0,0,1,1.34-2.871L128.18,171.714a2.234,2.234,0,0,1,2.858,1.34l.867,2.4a2.186,2.186,0,0,1-.089,1.722,2.147,2.147,0,0,1-1.3,1.148c-.013.013-.128.038-.153.051a3.6,3.6,0,0,0,2.462,6.774c.051-.013.153-.064.2-.077a2.227,2.227,0,0,1,1.671.051,2.2,2.2,0,0,1,1.186,1.276l1.531,4.172a2.249,2.249,0,0,1-.1,1.748,2.2,2.2,0,0,1-1.327,1.148c-.026,0-.128.038-.153.038a3.611,3.611,0,0,0,2.5,6.774l.153-.064a2.215,2.215,0,0,1,1.735.038,2.185,2.185,0,0,1,1.174,1.276l1.378,3.789a2.192,2.192,0,0,1-.089,1.748,2.234,2.234,0,0,1-1.327,1.148c-.013,0-.1.038-.128.038a3.606,3.606,0,1,0,2.475,6.774c.038-.026.153-.064.2-.089a2.232,2.232,0,0,1,1.671.064,2.205,2.205,0,0,1,1.187,1.276l1.518,4.172a2.232,2.232,0,0,1-1.4,2.883c-.026.013-.14.038-.166.051a3.608,3.608,0,0,0,2.488,6.774,1.4,1.4,0,0,1,.2-.089,2.227,2.227,0,0,1,1.671.051,2.282,2.282,0,0,1,1.186,1.276l.791,2.169a2.236,2.236,0,0,1-1.327,2.871L42.587,276.164a2.229,2.229,0,0,1-2.858-1.34l-.791-2.169a2.233,2.233,0,0,1,1.327-2.858,1.248,1.248,0,0,1,.2-.064,3.61,3.61,0,0,0-2.564-6.749,2.328,2.328,0,0,1-2.96-1.289l-1.518-4.159a2.243,2.243,0,0,1,1.34-2.871c.051-.013.153-.051.2-.064a3.607,3.607,0,0,0-2.577-6.736,2.323,2.323,0,0,1-2.96-1.3l-1.378-3.776a2.243,2.243,0,0,1,1.34-2.871c.051-.013.153-.051.2-.064a3.6,3.6,0,0,0,2.054-4.593Zm14.659,34.791,98.518-35.863a8.01,8.01,0,0,1-3.189-2.424L125.348,237.7a2.222,2.222,0,0,1-2.858-1.327,2.248,2.248,0,0,1,1.34-2.871l16.139-5.869a8.065,8.065,0,0,1,3.445-7.527l-.166-.434a8.074,8.074,0,0,1-5.346-14.7l-.013-.051a8.076,8.076,0,0,1-5.358-14.7l-.153-.434a8.063,8.063,0,0,1-7.948-4.363l-16.879,6.149a2.234,2.234,0,0,1-1.531-4.2l17.542-6.392a7.932,7.932,0,0,1,1.021-3.2l-22.531,8.191,1.569,4.312a2.238,2.238,0,0,1-1.327,2.858,2.316,2.316,0,0,1-.766.14,2.249,2.249,0,0,1-2.105-1.48l-1.569-4.3L25.567,213.816a8.066,8.066,0,0,1,1.85,14.149l.179.485a8.113,8.113,0,0,1,8.254,5.295,3.921,3.921,0,0,1,.166.549,8.089,8.089,0,0,1-3.088,8.8l.038.128a8.063,8.063,0,0,1,5.32,14.621l.191.51a8.041,8.041,0,0,1,7.833,11.7Z" transform="translate(0 -46.045)" fill="#97c5ea"/>
    <path id="路径_1683" data-name="路径 1683" d="M465.9,505.633l1.505,1.62-1.442.536Z" transform="translate(-384.431 -332.479)" fill="#fff"/>
    <path id="路径_1684" data-name="路径 1684" d="M188.858,179.865a2.236,2.236,0,0,1-1.327,2.871L78.387,222.464a2.229,2.229,0,0,1-2.858-1.34l-.791-2.169a2.233,2.233,0,0,1,1.327-2.858,1.233,1.233,0,0,1,.2-.064,3.61,3.61,0,0,0-2.564-6.749A2.328,2.328,0,0,1,70.745,208l-1.518-4.159a2.243,2.243,0,0,1,1.34-2.871c.051-.013.153-.051.2-.064a3.607,3.607,0,0,0-2.577-6.736,2.323,2.323,0,0,1-2.96-1.3l-1.378-3.776a2.243,2.243,0,0,1,1.34-2.871c.051-.013.153-.051.2-.064a3.61,3.61,0,0,0-2.526-6.762.745.745,0,0,0-.14.064,2.228,2.228,0,0,1-1.671-.064,2.205,2.205,0,0,1-1.187-1.276l-1.518-4.159A2.229,2.229,0,0,1,59.7,171.1a.775.775,0,0,1,.2-.064,3.613,3.613,0,0,0-2.615-6.736,2.3,2.3,0,0,1-1.722-.051,2.26,2.26,0,0,1-1.2-1.25l-.868-2.386a2.243,2.243,0,0,1,1.34-2.871l109.145-39.729a2.234,2.234,0,0,1,2.858,1.34l.868,2.4a2.186,2.186,0,0,1-.089,1.722,2.147,2.147,0,0,1-1.3,1.148c-.013.013-.128.038-.153.051a3.6,3.6,0,1,0,2.462,6.774c.051-.013.153-.064.2-.077a2.227,2.227,0,0,1,1.671.051,2.2,2.2,0,0,1,1.186,1.276l1.531,4.172a2.25,2.25,0,0,1-.1,1.748,2.2,2.2,0,0,1-1.327,1.148c-.026,0-.128.038-.153.038a3.611,3.611,0,0,0,2.5,6.774l.153-.064a2.216,2.216,0,0,1,1.735.038,2.185,2.185,0,0,1,1.174,1.276l1.378,3.789a2.191,2.191,0,0,1-.089,1.748,2.233,2.233,0,0,1-1.327,1.148c-.013,0-.1.038-.128.038a3.606,3.606,0,1,0,2.475,6.774c.038-.026.153-.064.2-.089a2.233,2.233,0,0,1,1.671.064,2.206,2.206,0,0,1,1.186,1.276l1.518,4.172a2.233,2.233,0,0,1-1.4,2.883c-.026.013-.14.038-.166.051a3.608,3.608,0,0,0,2.488,6.774,1.426,1.426,0,0,1,.2-.089,2.227,2.227,0,0,1,1.671.051,2.282,2.282,0,0,1,1.186,1.276l.791,2.169ZM82.112,216.353,180.63,180.49a8.01,8.01,0,0,1-3.19-2.424L161.148,184a2.222,2.222,0,0,1-2.858-1.327,2.248,2.248,0,0,1,1.34-2.871l16.139-5.869a8.065,8.065,0,0,1,3.445-7.527l-.166-.434a8.074,8.074,0,0,1-5.346-14.7l-.013-.051a8.076,8.076,0,0,1-5.358-14.7l-.153-.434a8.064,8.064,0,0,1-7.948-4.363l-16.879,6.149a2.234,2.234,0,0,1-1.531-4.2l17.542-6.392a7.935,7.935,0,0,1,1.021-3.2l-22.531,8.191,1.569,4.312a2.237,2.237,0,0,1-1.327,2.858,2.315,2.315,0,0,1-.765.14,2.249,2.249,0,0,1-2.105-1.48l-1.569-4.3L61.368,160.116a8.066,8.066,0,0,1,1.85,14.149l.179.485a8.113,8.113,0,0,1,8.254,5.295,3.9,3.9,0,0,1,.166.549,8.089,8.089,0,0,1-3.087,8.8l.038.128a8.063,8.063,0,0,1,5.32,14.621l.191.51a8.041,8.041,0,0,1,7.833,11.7Z" transform="translate(-30.697 0)" fill="#024687"/>
    <path id="路径_1685" data-name="路径 1685" d="M273.066,217.83l-98.518,35.863a8.041,8.041,0,0,0-7.833-11.7l-.191-.51a8.063,8.063,0,0,0-5.32-14.621l-.038-.128a8.089,8.089,0,0,0,3.087-8.8l.842-.268c.026.128.064.255.1.383a2.233,2.233,0,0,0,2.858,1.34l2.934-1.072,3.725,10.232a2.232,2.232,0,1,0,4.2-1.518l-3.725-10.245,2.934-1.059a2.246,2.246,0,0,0,1.442-2.488l2.22-.8,4.363,11.967a2.234,2.234,0,0,0,4.2-1.531l-1.416-3.878a14.681,14.681,0,0,0,1.48-.663l5.09,4.032a2.222,2.222,0,0,0,2.143.345,2.1,2.1,0,0,0,1-.715,2.234,2.234,0,0,0,.153-2.552l1.748-.115a2.25,2.25,0,0,0,2.105,1.327,2.217,2.217,0,0,0,2.169-2.284l-.026-1.008,4.606-1.684.893.97a2.22,2.22,0,0,0,2.4.587,2.438,2.438,0,0,0,.753-.459,2.2,2.2,0,0,0,.383-2.807l1.863-.676.115.306a2.234,2.234,0,1,0,4.2-1.531l2.335-.829a2.234,2.234,0,0,0,4.2-1.531l-2.271-6.238,8.522,5.384a2.239,2.239,0,0,0,1.965.217,2.893,2.893,0,0,0,.638-.357,2.24,2.24,0,0,0,.689-2.513l2.462-.893,1.824,5a2.228,2.228,0,0,0,4.185-1.531l-2.067-5.7a2.243,2.243,0,0,0-2.871-1.34,1.466,1.466,0,0,0-.319.153l-1.033-1.633a2.312,2.312,0,0,0,.766-.14,2.233,2.233,0,0,0,1.339-2.858l-2.08-5.716a2.238,2.238,0,0,0-2.858-1.327,1.463,1.463,0,0,0-.319.153l-1.059-1.671a2.316,2.316,0,0,0,.766-.14,2.242,2.242,0,0,0,1.339-2.871l-2.08-5.7a2.227,2.227,0,0,0-2.858-1.327,1.469,1.469,0,0,0-.319.153l-1.123-1.875a2.316,2.316,0,0,0,.765-.14,2.237,2.237,0,0,0,1.327-2.858l-1.569-4.312,22.531-8.191a7.933,7.933,0,0,0-1.021,3.2l-17.542,6.392a2.234,2.234,0,0,0,1.531,4.2l16.879-6.149a8.063,8.063,0,0,0,7.948,4.363l.153.434a8.076,8.076,0,0,0,5.358,14.7l.013.051a8.074,8.074,0,0,0,5.346,14.7l.166.434a8.065,8.065,0,0,0-3.445,7.527l-16.139,5.869a2.247,2.247,0,0,0-1.34,2.871,2.222,2.222,0,0,0,2.858,1.327l16.292-5.932A8.016,8.016,0,0,0,273.066,217.83Z" transform="translate(-123.134 -37.34)" fill="#fff"/>
    <path id="路径_1686" data-name="路径 1686" d="M682.293,381.084a2.228,2.228,0,0,1-4.185,1.531l-1.824-5-.255-.7a2.245,2.245,0,0,1,1.008-2.717,1.462,1.462,0,0,1,.319-.153,2.243,2.243,0,0,1,2.871,1.34Zm-4.185-11.52a2.233,2.233,0,0,1-1.339,2.858,2.316,2.316,0,0,1-.766.14,2.244,2.244,0,0,1-2.092-1.48l-2.08-5.7a2.215,2.215,0,0,1,1.021-2.7,1.474,1.474,0,0,1,.319-.153,2.237,2.237,0,0,1,2.858,1.327Z" transform="translate(-560.887 -209.652)" fill="#024687"/>
    <path id="路径_1687" data-name="路径 1687" d="M193.97,258.724,195,260.357A2.245,2.245,0,0,0,194,263.075l.255.7-2.462.893-4.478-12.311a2.234,2.234,0,0,0-4.2,1.531l2.245,6.162-8.459-5.333a2.256,2.256,0,0,0-.625-.268q-.069-.021-.14-.038c-.051,0-.089-.013-.128-.013a2.2,2.2,0,0,0-2.45,2.96l4.491,12.35-2.335.829-4.478-12.286a2.234,2.234,0,0,0-4.2,1.531l4.363,11.98-1.863.676a1.609,1.609,0,0,0-.255-.344l-9.7-10.525a2.243,2.243,0,0,0-2.475-.561,2.219,2.219,0,0,0-1.391,2.131l.345,13.8a2.328,2.328,0,0,0,.191.855l-1.748.115a2.457,2.457,0,0,0-.523-.574l-4.312-3.432a5.7,5.7,0,0,0,.919-2.245,5.205,5.205,0,0,0-2.067-4.988c-2.373-1.786-7.068-.166-9.645.97a.066.066,0,0,0-.051.026c-.038.013-.077.013-.115.026a2.243,2.243,0,0,0-1.34,2.871l.128.345-2.22.8c-.026-.128-.064-.255-.1-.383A2.238,2.238,0,0,0,132.324,270l-10.066,3.662a2.231,2.231,0,0,0-1.442,2.475l-.842.268a3.9,3.9,0,0,0-.166-.549,8.113,8.113,0,0,0-8.254-5.295l-.179-.485a8.066,8.066,0,0,0-1.85-14.149l72.287-26.307,1.569,4.3a2.248,2.248,0,0,0,2.105,1.48l1.123,1.875a2.215,2.215,0,0,0-1.021,2.7l2.08,5.7a2.245,2.245,0,0,0,2.092,1.48l1.059,1.671a2.215,2.215,0,0,0-1.021,2.7l2.08,5.7A2.244,2.244,0,0,0,193.97,258.724Z" transform="translate(-78.854 -95.814)" fill="#fff"/>
    <path id="路径_1688" data-name="路径 1688" d="M358.578,288.458a2.243,2.243,0,0,1-1.339,2.871,2.316,2.316,0,0,1-.766.14,2.245,2.245,0,0,1-2.092-1.48l-2.08-5.7a2.215,2.215,0,0,1,1.021-2.7,1.481,1.481,0,0,1,.319-.153,2.227,2.227,0,0,1,2.858,1.327Zm-.077,20.515a2.24,2.24,0,0,1-.689,2.513,2.9,2.9,0,0,1-.638.357,2.239,2.239,0,0,1-1.965-.217l-8.522-5.384,2.271,6.239a2.234,2.234,0,0,1-4.2,1.531l-4.491-12.35a2.2,2.2,0,0,1,2.45-2.96c.038,0,.077.013.128.013s.1.026.14.038a2.262,2.262,0,0,1,.625.268l8.459,5.333-2.245-6.162a2.234,2.234,0,0,1,4.2-1.531l4.478,12.312Zm-16.075,5.869a2.234,2.234,0,1,1-4.2,1.531l-.115-.306-4.363-11.98a2.234,2.234,0,0,1,4.2-1.531Zm-6.175,1.9a2.2,2.2,0,0,1-.383,2.807,2.438,2.438,0,0,1-.753.459,2.22,2.22,0,0,1-2.4-.587l-.893-.97-4.606,1.684.026,1.008a2.217,2.217,0,0,1-2.169,2.284,2.25,2.25,0,0,1-2.105-1.327,2.325,2.325,0,0,1-.191-.855l-.345-13.8a2.22,2.22,0,0,1,1.391-2.131,2.243,2.243,0,0,1,2.475.561L336,316.4A1.6,1.6,0,0,1,336.251,316.742Zm-7.706-1.85-1.505-1.62.064,2.156Zm-7.323,7.323a2.234,2.234,0,0,1-.153,2.552,2.1,2.1,0,0,1-1,.715,2.222,2.222,0,0,1-2.143-.345l-5.09-4.031a14.653,14.653,0,0,1-1.48.663l1.416,3.878a2.234,2.234,0,0,1-4.2,1.531l-4.363-11.967-.128-.345a2.243,2.243,0,0,1,1.34-2.871c.038-.013.077-.013.115-.026a.066.066,0,0,1,.051-.026c2.577-1.135,7.272-2.756,9.645-.97a5.205,5.205,0,0,1,2.067,4.988,5.7,5.7,0,0,1-.919,2.245l4.312,3.432A2.462,2.462,0,0,1,321.223,322.215Zm-8.331-6.966a.716.716,0,0,0-.23-.612,10.5,10.5,0,0,0-3.623.766l.8,2.194C311.935,316.742,312.8,315.824,312.892,315.25Z" transform="translate(-245.567 -140.118)" fill="#024687"/>
    <path id="路径_1689" data-name="路径 1689" d="M343.246,515.12a.716.716,0,0,1,.23.612c-.089.574-.957,1.493-3.049,2.348l-.8-2.194A10.5,10.5,0,0,1,343.246,515.12Z" transform="translate(-276.152 -340.601)" fill="#fff"/>
    <path id="路径_1690" data-name="路径 1690" d="M203.008,513.783a2.246,2.246,0,0,1-1.442,2.488l-2.934,1.059,3.725,10.245a2.232,2.232,0,1,1-4.2,1.518l-3.725-10.232-2.934,1.072a2.234,2.234,0,0,1-2.858-1.34c-.038-.128-.077-.255-.1-.383a2.231,2.231,0,0,1,1.442-2.475l10.066-3.662a2.237,2.237,0,0,1,2.858,1.327C202.944,513.528,202.983,513.655,203.008,513.783Z" transform="translate(-146.579 -337.885)" fill="#024687"/>
  </g>
</svg>
