<svg xmlns="http://www.w3.org/2000/svg" width="64.695" height="36.109" viewBox="0 0 64.695 36.109">
  <g id="组_675" data-name="组 675" transform="translate(-1014 -9487)">
    <rect id="矩形_2579" data-name="矩形 2579" width="64.695" height="36.109" rx="18.055" transform="translate(1014 9487)" fill="#59b4fe"/>
    <path id="赞" d="M42.183,100.154c0,5.688,7.113,12.071,10.636,12.071,3.543,0,10.636-6.348,10.636-12.071,0-3.672-2.431-6.515-5.618-6.515a4.1,4.1,0,0,0-4.226,3.194.835.835,0,0,1-1.584,0A4.1,4.1,0,0,0,47.8,93.639c-3.187,0-5.618,2.843-5.618,6.515Zm15.655-8.186c4.173,0,7.289,3.643,7.289,8.186,0,6.69-7.88,13.742-12.307,13.742-4.409,0-12.307-7.088-12.307-13.742,0-4.542,3.116-8.186,7.289-8.186A5.574,5.574,0,0,1,52.819,94.6,5.573,5.573,0,0,1,57.837,91.968Z" transform="translate(993.511 9402.172)" fill="#fff"/>
  </g>
</svg>
