<svg xmlns="http://www.w3.org/2000/svg" width="17.409" height="17.41" viewBox="0 0 17.409 17.41">
  <g id="分享" transform="translate(-69.818 -69.818)">
    <path id="路径_1709" data-name="路径 1709" d="M83.791,87.228H73.254a3.441,3.441,0,0,1-3.436-3.436V73.254a3.441,3.441,0,0,1,3.436-3.436h5.269a.687.687,0,0,1,0,1.374H73.254a2.066,2.066,0,0,0-2.062,2.062V83.792a2.066,2.066,0,0,0,2.062,2.062H83.791a2.066,2.066,0,0,0,2.062-2.062V78.523a.687.687,0,0,1,1.374,0v5.269a3.441,3.441,0,0,1-3.436,3.436Z" transform="translate(0 0)" fill="#949494"/>
    <path id="路径_1710" data-name="路径 1710" d="M466.077,80.292a.692.692,0,0,1-.486-.2.683.683,0,0,1,0-.971l8.247-8.247a.687.687,0,0,1,.971.971l-8.247,8.247A.692.692,0,0,1,466.077,80.292Z" transform="translate(-387.783 -0.853)" fill="#949494"/>
    <path id="路径_1711" data-name="路径 1711" d="M702.534,71.192h-3.665a.687.687,0,1,1,0-1.374h3.665a.687.687,0,0,1,0,1.374Z" transform="translate(-615.994 0)" fill="#949494"/>
    <path id="路径_1712" data-name="路径 1712" d="M885.051,74.857a.687.687,0,0,1-.687-.687V70.505a.687.687,0,0,1,1.374,0V74.17A.687.687,0,0,1,885.051,74.857Z" transform="translate(-798.511)" fill="#949494"/>
  </g>
</svg>
