<svg xmlns="http://www.w3.org/2000/svg" width="29.716" height="23.301" viewBox="0 0 29.716 23.301">
  <g id="轮船" transform="translate(-201.337 -233.724)">
    <path id="路径_1614" data-name="路径 1614" d="M221.442,502.633a4.41,4.41,0,0,1-2.864-1.017,3.084,3.084,0,0,0-4.006,0,4.552,4.552,0,0,1-5.734,0,4.189,4.189,0,0,0-.949-.564.735.735,0,0,1-.468-.593l-1.067-8.184a.735.735,0,0,1,.73-.832H235.32a.737.737,0,0,1,.58,1.19l-6.794,8.68a.737.737,0,0,1-1,.15,2.761,2.761,0,0,0-1.794-.587,2.959,2.959,0,0,0-2,.739,4.4,4.4,0,0,1-2.864,1.017Zm-4.865-3.229a4.41,4.41,0,0,1,2.864,1.017,3.085,3.085,0,0,0,4.007,0,4.417,4.417,0,0,1,2.866-1.017,4.154,4.154,0,0,1,2.044.481l5.452-6.967H207.925l.906,6.946a6.943,6.943,0,0,1,.868.558,3.094,3.094,0,0,0,4.012,0,4.41,4.41,0,0,1,2.865-1.017Z" transform="translate(-5.01 -245.608)" fill="#fff"/>
    <path id="路径_1615" data-name="路径 1615" d="M259.334,343.5a.737.737,0,0,1-.737-.737V335.4a.737.737,0,0,1,.737-.737h15.96a.737.737,0,0,1,.737.737v5.153a.737.737,0,1,1-1.473,0v-4.417H260.071v6.628a.737.737,0,0,1-.737.737Z" transform="translate(-54.804 -96.194)" fill="#fff"/>
    <path id="路径_1616" data-name="路径 1616" d="M216.963,243.394a.737.737,0,0,1,0-1.473h3.309a.737.737,0,0,1,.737.737Zm-3.324,0h-1.1a.737.737,0,1,1,0-1.473h1.1a.737.737,0,1,1,0,1.473Zm-4.423,0h-1.1a.737.737,0,0,1,0-1.473h1.1a.737.737,0,0,1,0,1.473Zm-.362-3.453h-4.328a.737.737,0,0,1-.737-.737v-4.744a.737.737,0,0,1,.737-.737h4.328a.737.737,0,0,1,.737.737V239.2A.737.737,0,0,1,208.854,239.941Zm-3.591-1.473h2.854V235.2h-2.854Zm-3.439,18.184h0Z" transform="translate(0.003 0)" fill="#fff"/>
    <path id="路径_1617" data-name="路径 1617" d="M244.53,545.063h-5.056a.737.737,0,1,1,0-1.473h5.056a.737.737,0,1,1,0,1.473Zm-7.4,0h-.782a.737.737,0,1,1,0-1.473h.782a.737.737,0,1,1,0,1.473Zm-3.583,0H219.194a.737.737,0,1,1,0-1.473h14.349a.737.737,0,1,1,0,1.473Z" transform="translate(-16.551 -295.303)" fill="#fff"/>
  </g>
</svg>
