<svg xmlns="http://www.w3.org/2000/svg" width="19.083" height="12.243" viewBox="0 0 19.083 12.243">
  <g id="组_681" data-name="组 681" transform="translate(-145.02 -607.587)">
    <g id="船票" transform="translate(140.74 626.328) rotate(-90)">
      <g id="组_627" data-name="组 627" transform="translate(18.241 4.779) rotate(90)">
        <path id="路径_1677" data-name="路径 1677" d="M17.849,11.243H.234A.235.235,0,0,1,0,11.009V.234A.235.235,0,0,1,.234,0H17.849a.235.235,0,0,1,.234.234V11.012a.233.233,0,0,1-.234.231Z" transform="translate(0 0)" fill="none" stroke="#707070" stroke-width="1"/>
        <path id="路径_1678" data-name="路径 1678" d="M0,0A2.261,2.261,0,0,1,2.26,2.26,2.261,2.261,0,0,1,0,4.519M17.66,0a2.26,2.26,0,1,0,0,4.519m-6.285-2.99h-5.1A.129.129,0,0,1,6.15,1.4V.5A.129.129,0,0,1,6.279.372h5.1A.129.129,0,0,1,11.5.5v.9A.129.129,0,0,1,11.375,1.529Zm0,2.618h-5.1a.129.129,0,0,1-.128-.128v-.9a.129.129,0,0,1,.128-.128h5.1a.129.129,0,0,1,.128.128v.9A.129.129,0,0,1,11.375,4.147Z" transform="translate(0.215 3.362)" fill="#717171"/>
      </g>
    </g>
  </g>
</svg>
